<svg width="40" height="42" viewBox="0 0 40 42" fill="none" xmlns="http://www.w3.org/2000/svg">
<path d="M13.379 32.0648C13.379 32.2262 13.1935 32.3553 12.9597 32.3553C12.6935 32.3795 12.5081 32.2504 12.5081 32.0648C12.5081 31.9034 12.6935 31.7743 12.9274 31.7743C13.1694 31.7501 13.379 31.8792 13.379 32.0648ZM10.871 31.7017C10.8145 31.8631 10.9758 32.0487 11.2177 32.0971C11.4274 32.1778 11.6694 32.0971 11.7177 31.9357C11.7661 31.7743 11.6129 31.5888 11.371 31.5162C11.1613 31.4597 10.9274 31.5404 10.871 31.7017ZM14.4355 31.5646C14.2016 31.621 14.0403 31.7743 14.0645 31.9599C14.0887 32.1213 14.2984 32.2262 14.5403 32.1697C14.7742 32.1132 14.9355 31.9599 14.9113 31.7986C14.8871 31.6453 14.6694 31.5404 14.4355 31.5646ZM19.7419 0.645508C8.55645 0.645508 0 9.14179 0 20.333C0 29.2811 5.62903 36.9383 13.6694 39.6332C14.7016 39.8188 15.0645 39.1814 15.0645 38.6569C15.0645 38.1567 15.0403 35.3972 15.0403 33.7028C15.0403 33.7028 9.39516 34.9131 8.20968 31.2983C8.20968 31.2983 7.29032 28.9503 5.96774 28.3452C5.96774 28.3452 4.12097 27.0784 6.09677 27.1026C6.09677 27.1026 8.10484 27.264 9.20968 29.1843C10.9758 32.2988 13.9355 31.4032 15.0887 30.8707C15.2742 29.5797 15.7984 28.6841 16.379 28.1515C11.871 27.6513 7.32258 26.9977 7.32258 19.2357C7.32258 17.0168 7.93548 15.9033 9.22581 14.4832C9.01613 13.9588 8.33064 11.7964 9.43548 9.00463C11.121 8.48016 15 11.1832 15 11.1832C16.6129 10.7313 18.3468 10.4973 20.0645 10.4973C21.7823 10.4973 23.5161 10.7313 25.129 11.1832C25.129 11.1832 29.0081 8.4721 30.6935 9.00463C31.7984 11.8044 31.1129 13.9588 30.9032 14.4832C32.1936 15.9114 32.9839 17.0249 32.9839 19.2357C32.9839 27.0219 28.2339 27.6432 23.7258 28.1515C24.4677 28.7889 25.0968 29.9992 25.0968 31.8954C25.0968 34.6145 25.0726 37.9791 25.0726 38.6408C25.0726 39.1652 25.4435 39.8027 26.4677 39.6171C34.5323 36.9383 40 29.2811 40 20.333C40 9.14179 30.9274 0.645508 19.7419 0.645508ZM7.83871 28.4743C7.73387 28.555 7.75806 28.7405 7.89516 28.8938C8.02419 29.0229 8.20968 29.0794 8.31452 28.9745C8.41935 28.8938 8.39516 28.7083 8.25806 28.555C8.12903 28.4259 7.94355 28.3694 7.83871 28.4743ZM6.96774 27.8207C6.91129 27.9256 6.99194 28.0547 7.15323 28.1354C7.28226 28.2161 7.44355 28.1919 7.5 28.0789C7.55645 27.974 7.47581 27.8449 7.31452 27.7642C7.15323 27.7158 7.02419 27.74 6.96774 27.8207ZM9.58065 30.6931C9.45161 30.798 9.5 31.0401 9.68548 31.1934C9.87097 31.379 10.1048 31.4032 10.2097 31.2741C10.3145 31.1692 10.2661 30.9271 10.1048 30.7738C9.92742 30.5883 9.68548 30.5641 9.58065 30.6931ZM8.66129 29.5071C8.53226 29.5877 8.53226 29.7975 8.66129 29.9831C8.79032 30.1687 9.00806 30.2494 9.1129 30.1687C9.24193 30.0638 9.24193 29.854 9.1129 29.6684C9 29.4829 8.79032 29.4022 8.66129 29.5071Z" fill="#DEDEDE"/>
</svg>
