<svg width="41" height="46" viewBox="0 0 41 46" fill="none" xmlns="http://www.w3.org/2000/svg">
<path d="M38.0714 2.875H2.91942C1.30871 2.875 0 4.17773 0 5.77695V40.223C0 41.8223 1.30871 43.125 2.91942 43.125H38.0714C39.6821 43.125 41 41.8223 41 40.223V5.77695C41 4.17773 39.6821 2.875 38.0714 2.875ZM12.3915 37.375H6.31473V18.1664H12.4007V37.375H12.3915ZM9.35312 15.543C7.40379 15.543 5.82969 13.9887 5.82969 12.084C5.82969 10.1793 7.40379 8.625 9.35312 8.625C11.2933 8.625 12.8766 10.1793 12.8766 12.084C12.8766 13.9977 11.3025 15.543 9.35312 15.543V15.543ZM35.1703 37.375H29.0935V28.0312C29.0935 25.8031 29.0478 22.9371 25.9362 22.9371C22.7696 22.9371 22.2846 25.3629 22.2846 27.8695V37.375H16.2078V18.1664H22.0375V20.7898H22.1199C22.9344 19.2805 24.9203 17.6902 27.8763 17.6902C34.0263 17.6902 35.1703 21.6703 35.1703 26.8453V37.375V37.375Z" fill="#DEDEDE"/>
</svg>
