<svg width="36" height="41" viewBox="0 0 36 41" fill="none" xmlns="http://www.w3.org/2000/svg">
<path d="M5.14286 17.9375H6.22768C8.2125 22.4619 12.7286 25.625 18 25.625C23.2714 25.625 27.7875 22.4619 29.7723 17.9375H30.8571C31.5643 17.9375 32.1429 17.3609 32.1429 16.6562V8.96875C32.1429 8.26406 31.5643 7.6875 30.8571 7.6875H29.7723C27.7875 3.16309 23.2714 0 18 0C12.7286 0 8.2125 3.16309 6.22768 7.6875H5.14286C4.43571 7.6875 3.85714 8.26406 3.85714 8.96875V16.6562C3.85714 17.3609 4.43571 17.9375 5.14286 17.9375ZM8.35714 10.8906C8.35714 9.1209 10.0848 7.6875 12.2143 7.6875H23.7857C25.9152 7.6875 27.6429 9.1209 27.6429 10.8906V12.8125C27.6429 17.0566 24.1875 20.5 19.9286 20.5H16.0714C11.8125 20.5 8.35714 17.0566 8.35714 12.8125V10.8906ZM14.1429 16.6562L15.1071 13.7734L18 12.8125L15.1071 11.8516L14.1429 8.96875L13.1786 11.8516L10.2857 12.8125L13.1786 13.7734L14.1429 16.6562ZM26.325 25.7371C23.9223 27.2826 21.0696 28.1875 18 28.1875C14.9304 28.1875 12.0777 27.2826 9.675 25.7371C4.25089 26.3057 0 30.8301 0 36.3875V37.1562C0 39.2783 1.72768 41 3.85714 41H10.2857V35.875C10.2857 34.4576 11.4348 33.3125 12.8571 33.3125H23.1429C24.5652 33.3125 25.7143 34.4576 25.7143 35.875V41H32.1429C34.2723 41 36 39.2783 36 37.1562V36.3875C36 30.8301 31.7491 26.3057 26.325 25.7371ZM21.8571 35.875C21.15 35.875 20.5714 36.4516 20.5714 37.1562C20.5714 37.8609 21.15 38.4375 21.8571 38.4375C22.5643 38.4375 23.1429 37.8609 23.1429 37.1562C23.1429 36.4516 22.5643 35.875 21.8571 35.875ZM14.1429 35.875C13.4357 35.875 12.8571 36.4516 12.8571 37.1562V41H15.4286V37.1562C15.4286 36.4516 14.85 35.875 14.1429 35.875Z" fill="#DEDEDE"/>
</svg>
